<?xml version="1.0" encoding="UTF-8" standalone="no"?>
<svg
   viewBox="0 0 821 141"
   fill-rule="evenodd"
   clip-rule="evenodd"
   stroke-linejoin="round"
   stroke-miterlimit="2"
   version="1.1"
   id="svg6"
   width="821"
   height="141"
   xmlns="http://www.w3.org/2000/svg"
   xmlns:svg="http://www.w3.org/2000/svg">
  <defs
     id="defs10">
    <rect
       x="343.77966"
       y="18.435686"
       width="514.71429"
       height="123.56171"
       id="rect353" />
  </defs>
  <path
     d="m 47.5889,72.80593 h 22.387 c 7.274,0 12.592,-1.677 16.51,-5.037 3.636,-3.357 5.596,-8.115 5.596,-14.27 0,-6.157 -1.96,-10.914 -5.597,-14.551 -3.637,-3.638 -8.955,-5.318 -15.952,-5.595 h -22.944 z m 0,6.158 v 35.538 h -7.277 v -87.306 h 29.664 c 8.954,0 16.23,2.237 21.546,6.994 5.318,4.758 7.835,10.915 7.835,19.03 0,8.114 -2.517,14.55 -7.555,19.03 -5.037,4.474 -12.314,6.714 -22.106,6.714 h -22.108 z m 74.712,35.816 h -7.275 v -65.2 h 7.275 z m -8.395,-83.95 c 0,-1.397 0.56,-2.517 1.4,-3.357 0.84,-0.837 1.96,-1.397 3.638,-1.397 1.68,0 2.797,0.56 3.637,1.397 0.84,0.84 1.4,1.96 1.4,3.357 0,1.4 -0.56,2.52 -1.4,3.36 -0.84,0.84 -2.237,1.4 -3.637,1.4 -1.398,0 -2.798,-0.56 -3.638,-1.4 -0.84,-0.84 -1.4,-1.96 -1.4,-3.36 m 52.049,78.912 c 5.037,0 9.234,-1.397 12.592,-4.197 3.357,-2.797 5.317,-6.435 5.597,-10.915 h 6.995 c -0.28,3.92 -1.4,7.558 -3.638,10.915 -2.237,3.357 -5.317,5.877 -9.234,7.555 -3.918,1.96 -7.835,2.8 -12.032,2.8 -8.395,0 -15.392,-3.08 -20.147,-8.955 -5.038,-5.877 -7.558,-13.992 -7.558,-23.787 v -2.237 c 0,-6.437 1.12,-12.032 3.36,-17.07 2.238,-5.037 5.595,-8.674 9.513,-11.474 4.197,-2.797 8.954,-3.917 14.552,-3.917 6.997,0 12.872,2.24 17.629,6.437 4.757,4.197 6.995,9.792 7.555,16.79 h -6.995 c -0.28,-5.038 -2.24,-9.235 -5.597,-12.313 -3.358,-3.077 -7.555,-4.757 -12.592,-4.757 -6.438,0 -11.472,2.237 -15.112,6.995 -3.638,4.757 -5.315,11.192 -5.315,19.59 v 2.236 c 0,8.395 1.677,14.832 5.315,19.307 3.36,4.76 8.674,6.997 15.112,6.997 m 42.533,-26.581 c 0,7.835 1.957,14.272 6.157,19.03 3.915,5.034 9.232,7.554 15.95,7.554 6.434,0 11.752,-2.52 15.669,-7.555 3.917,-5.037 6.157,-11.474 6.157,-19.869 v -1.397 c 0,-5.04 -0.84,-9.515 -2.8,-13.712 -1.957,-4.198 -4.474,-7.275 -7.834,-9.515 -3.358,-2.24 -6.995,-3.357 -11.472,-3.357 -6.438,0 -11.755,2.517 -15.67,7.554 -3.92,5.038 -6.157,11.472 -6.157,19.867 z m -7.277,-1.957 c 0,-6.158 1.12,-11.755 3.64,-16.792 2.517,-5.035 5.874,-8.955 10.354,-11.752 4.475,-2.798 9.512,-4.198 15.11,-4.198 8.674,0 15.669,3.078 20.986,9.235 5.318,6.155 8.115,13.992 8.115,24.064 v 1.4 c 0,6.157 -1.12,12.032 -3.637,17.07 -2.518,5.037 -5.878,8.954 -10.352,11.751 -4.48,2.8 -9.515,4.198 -15.112,4.198 -8.675,0 -15.67,-3.078 -20.987,-9.235 -5.317,-6.155 -8.117,-13.99 -8.117,-24.064 z"
     fill="#1e1e1e"
     fill-rule="nonzero"
     id="path2-3" />
  <path
     d="m 34.7169,8.4459303 c -13.712,0 -24.624,11.1919997 -24.624,24.6239997 v 74.995 c 0,13.712 11.192,24.624 24.624,24.624 h 224.982 c 13.712,0 24.626,-11.192 24.626,-24.624 v -74.995 c 0,-13.712 -11.194,-24.6239997 -24.626,-24.6239997 z M 259.9789,140.52393 H 34.9969 c -17.91,0 -32.459,-14.55 -32.459,-32.459 v -74.995 c 0,-17.906 14.55,-32.4579997 32.459,-32.4579997 h 224.982 c 17.909,0 32.461,14.5519997 32.461,32.4579997 v 74.995 c 0,17.91 -14.552,32.459 -32.461,32.459"
     fill="#c31c4a"
     fill-rule="nonzero"
     id="path4-6" />
  <g
     aria-label="Web Radio"
     transform="translate(-30,-3.3004201)"
     id="text351"
     style="font-size:106.667px;line-height:1.25;font-family:Roboto;-inkscape-font-specification:Roboto;letter-spacing:0px;word-spacing:0px;white-space:pre;shape-inside:url(#rect353);shape-padding:1.51604;display:inline;fill:#1e1e1e">
    <path
       d="m 370.45125,94.127345 1.45834,10.000035 2.13542,-9.010448 15.00005,-52.916832 h 8.43752 l 14.63547,52.916832 2.08334,9.166698 1.61459,-10.208368 11.77087,-51.875162 h 10.05211 l -18.38547,75.83357 h -9.11462 l -15.62504,-55.260589 -1.19792,-5.781268 -1.19793,5.781268 -16.19796,55.260589 h -9.11461 L 348.47202,42.2001 h 10.00003 z"
       id="path279" />
    <path
       d="m 470.60781,119.07534 q -11.45837,0 -18.64589,-7.50002 -7.18752,-7.55211 -7.18752,-20.156316 v -1.770839 q 0,-8.385443 3.17709,-14.947964 3.22918,-6.614604 8.95836,-10.312532 5.78127,-3.750012 12.50004,-3.750012 10.98962,0 17.08339,7.239606 6.09377,7.239606 6.09377,20.729232 v 4.010429 h -38.1772 q 0.20833,8.333356 4.84376,13.489626 4.68752,5.10418 11.87504,5.10418 5.10418,0 8.64586,-2.08334 3.54168,-2.08334 6.19793,-5.52085 l 5.88544,4.58335 q -7.08336,10.88545 -21.25007,10.88545 z m -1.19792,-50.520991 q -5.83335,0 -9.79169,4.270846 -3.95835,4.218764 -4.89585,11.875038 h 28.22925 v -0.729169 q -0.41667,-7.343773 -3.95834,-11.354203 -3.54168,-4.062512 -9.58337,-4.062512 z"
       id="path281" />
    <path
       d="m 551.44139,90.481501 q 0,12.916709 -5.93751,20.781319 -5.93752,7.81252 -15.93755,7.81252 -10.67712,0 -16.51047,-7.55211 l -0.46875,6.51044 h -8.8542 V 38.03342 h 9.63545 v 29.843843 q 5.83335,-7.239606 16.0938,-7.239606 10.26045,0 16.0938,7.760441 5.88543,7.760441 5.88543,21.250067 z m -9.63544,-1.093754 q 0,-9.843781 -3.8021,-15.208381 -3.80209,-5.3646 -10.93753,-5.3646 -9.53128,0 -13.69796,8.854195 v 24.375079 q 4.4271,8.85419 13.80213,8.85419 6.9271,0 10.78128,-5.3646 3.85418,-5.3646 3.85418,-16.145883 z"
       id="path283" />
    <path
       d="M 619.3062,87.356491 H 601.49364 V 118.03367 H 591.44153 V 42.2001 h 25.10424 q 12.81254,0 19.68756,5.833351 6.92711,5.833352 6.92711,16.97922 0,7.083356 -3.85418,12.343789 -3.8021,5.260433 -10.62504,7.864608 l 17.81256,32.187602 v 0.625 h -10.7292 z m -17.81256,-8.177109 h 15.36463 q 7.44794,0 11.82295,-3.854179 4.4271,-3.854178 4.4271,-10.312532 0,-7.031272 -4.21876,-10.781284 -4.16668,-3.750011 -12.08337,-3.802095 h -15.31255 z"
       id="path285" />
    <path
       d="m 690.45224,118.03367 q -0.83334,-1.66667 -1.35417,-5.93752 -6.71877,6.97919 -16.04172,6.97919 -8.33336,0 -13.69796,-4.68751 -5.31251,-4.7396 -5.31251,-11.97921 0,-8.80211 6.66668,-13.645875 6.71877,-4.895848 18.85423,-4.895848 h 9.37503 v -4.427098 q 0,-5.052099 -3.02084,-8.020858 -3.02085,-3.020843 -8.90628,-3.020843 -5.15627,0 -8.64586,2.604175 -3.4896,2.604175 -3.4896,6.302103 h -9.68753 q 0,-4.218763 2.96876,-8.125025 3.02084,-3.958346 8.12503,-6.25002 5.15626,-2.291674 11.30212,-2.291674 9.73961,0 15.26046,4.895849 5.52085,4.843765 5.72918,13.385458 v 25.937586 q 0,7.76044 1.97918,12.34378 v 0.83334 z m -15.98963,-7.34377 q 4.53126,0 8.59377,-2.34376 4.06252,-2.34376 5.88544,-6.09377 V 90.689835 h -7.55211 q -17.70839,0 -17.70839,10.364615 0,4.53126 3.02085,7.08336 3.02084,2.55209 7.76044,2.55209 z"
       id="path287" />
    <path
       d="m 711.33773,89.387747 q 0,-12.96879 6.14586,-20.833398 6.14585,-7.916692 16.0938,-7.916692 9.89586,0 15.67713,6.770855 V 38.03342 h 9.63544 v 80.00025 h -8.85419 l -0.46875,-6.04169 q -5.78127,7.08336 -16.0938,7.08336 -9.7917,0 -15.98963,-8.02086 -6.14586,-8.02086 -6.14586,-20.937564 z m 9.63545,1.093754 q 0,9.583359 3.95835,15.000049 3.95834,5.41668 10.93753,5.41668 9.1667,0 13.38546,-8.22919 V 76.783541 q -4.32293,-7.968775 -13.28129,-7.968775 -7.08336,0 -11.0417,5.468767 -3.95835,5.468767 -3.95835,16.197968 z"
       id="path289" />
    <path
       d="m 784.30671,118.03367 h -9.63545 V 61.679327 h 9.63545 z m -10.4167,-71.302306 q 0,-2.343757 1.40625,-3.958346 1.45834,-1.614588 4.27085,-1.614588 2.81251,0 4.27084,1.614588 1.45834,1.614589 1.45834,3.958346 0,2.343757 -1.45834,3.906262 -1.45833,1.562505 -4.27084,1.562505 -2.81251,0 -4.27085,-1.562505 -1.40625,-1.562505 -1.40625,-3.906262 z"
       id="path291" />
    <path
       d="m 797.17133,89.335664 q 0,-8.281276 3.22918,-14.89588 3.28126,-6.614604 9.06253,-10.208365 5.83335,-3.593762 13.28129,-3.593762 11.51045,0 18.5938,7.968775 7.13544,7.968775 7.13544,21.197983 v 0.677086 q 0,8.229192 -3.17709,14.791709 -3.12501,6.51044 -9.01044,10.15629 -5.83336,3.64584 -13.43755,3.64584 -11.45837,0 -18.5938,-7.96877 -7.08336,-7.96878 -7.08336,-21.093821 z m 9.68753,1.145837 q 0,9.375029 4.32293,15.052129 4.37501,5.6771 11.6667,5.6771 7.34378,0 11.66671,-5.72918 4.32293,-5.781271 4.32293,-16.145886 0,-9.270863 -4.4271,-15.000047 -4.37501,-5.781268 -11.6667,-5.781268 -7.13544,0 -11.51046,5.677101 -4.37501,5.677101 -4.37501,16.250051 z"
       id="path293" />
  </g>
</svg>
